<svg xmlns="http://www.w3.org/2000/svg" xmlns:xlink="http://www.w3.org/1999/xlink" width="500" zoomAndPan="magnify" viewBox="0 0 375 374.999991" height="500" preserveAspectRatio="xMidYMid meet" version="1.0"><defs><clipPath id="ca5ff59232"><path d="M 61.5625 16.449219 L 313.5625 16.449219 L 313.5625 358.449219 L 61.5625 358.449219 Z M 61.5625 16.449219 " clip-rule="nonzero"/></clipPath><clipPath id="9d19d08705"><path d="M 175 104 L 200 104 L 200 358.449219 L 175 358.449219 Z M 175 104 " clip-rule="nonzero"/></clipPath></defs><path fill="#f1efe7" d="M 273.105469 167.191406 L 260.96875 160.183594 L 248.835938 153.179688 L 248.835938 262.074219 L 243.804688 264.992188 L 243.804688 293.074219 L 273.105469 276.085938 L 273.105469 167.191406 " fill-opacity="1" fill-rule="nonzero"/><g clip-path="url(#ca5ff59232)"><path fill="#f1efe7" d="M 248.835938 107.644531 L 248.835938 135.671875 L 289.148438 158.945312 L 289.148438 284.027344 L 233.347656 316.417969 L 233.347656 43.023438 L 187.511719 16.445312 L 141.675781 43.023438 L 141.675781 316.417969 L 85.878906 284.027344 L 85.878906 158.945312 L 126.191406 135.671875 L 126.191406 107.644531 L 61.605469 144.933594 L 61.605469 298.042969 L 165.949219 358.542969 L 165.949219 57.035156 L 187.511719 44.519531 L 209.074219 57.035156 L 209.074219 358.542969 L 313.417969 298.042969 L 313.417969 144.933594 L 248.835938 107.644531 " fill-opacity="1" fill-rule="nonzero"/></g><path fill="#f1efe7" d="M 114.054688 160.183594 L 101.917969 167.191406 L 101.917969 276.085938 L 131.21875 293.074219 L 131.21875 264.992188 L 126.1875 262.074219 L 126.1875 153.179688 L 114.054688 160.183594 " fill-opacity="1" fill-rule="nonzero"/><g clip-path="url(#9d19d08705)"><path fill="#f1efe7" d="M 175.375 111.5 L 175.375 358.542969 L 199.648438 358.542969 L 199.648438 111.5 L 187.511719 104.453125 L 175.375 111.5 " fill-opacity="1" fill-rule="nonzero"/></g></svg>